<?xml version="1.0" encoding="UTF-8"?>
<svg width="512px" height="512px" viewBox="0 0 512 512" version="1.1" xmlns="http://www.w3.org/2000/svg" xmlns:xlink="http://www.w3.org/1999/xlink">
    <title>512x512@1x</title>
    <g id="512x512" stroke="none" stroke-width="1" fill="none" fill-rule="evenodd" opacity="0.55">
        <g id="logo2" transform="translate(59, 57)" fill-rule="nonzero">
            <path d="M304.599147,28.0867236 C349.425415,53.8861107 386.057848,102.572681 396.090299,136.502784 C398.261562,142.81633 399.526024,149.39412 399.847471,156.047775 C401.469589,178.676468 390.056173,200.301776 370.255582,212.116328 C350.45499,223.930879 325.571054,223.963356 305.73829,212.200532 C288.011629,201.685327 273.762352,178.485423 266.90751,160.425852 C241.28679,92.8001862 259.672955,2.73687124 144,7.56448383 C198.137886,-7.37374927 256.168322,0.00638643262 304.599147,27.9889986 L304.599147,28.0867236 Z" id="路径" fill="#00FFAE"></path>
            <path d="M305.908018,28.3354701 C264.035299,3.59343115 214.680901,-5.35495893 166.776839,3.10975337 C160.074343,4.29498674 153.253218,5.83579011 146.886834,7.63339404 C144.954133,8.13570395 143.078949,8.83744837 141.291535,9.72730632 C137.561367,11.5869052 134.440325,14.4721718 132.295558,18.0436937 C126.764149,27.1379803 128.319408,38.8537649 136.032349,46.1929861 C171.877855,80.1894297 304.64265,64.9394271 363.581124,109.030108 C379.398225,120.882442 393.574303,139.15479 400,158 C396.915665,109.365924 346.162541,52.0401374 305.888247,28.3354701 L305.908018,28.3354701 Z" id="路径" fill="#1D79E1"></path>
            <path d="M302.054849,378.293054 C256.982569,404.222121 195.811623,411.164876 160.888068,402.400406 C154.212566,401.016211 147.757144,398.700294 141.704987,395.518375 C120.952628,385.219106 107.574853,364.012313 107.018056,340.531761 C106.461259,317.051209 118.818304,295.213019 139.058359,283.908013 C157.146969,273.787378 184.707724,273.301587 204.030101,276.641397 C276.424343,289.190984 346.669443,351.959162 400,248 C386.210833,303.212312 350.82346,350.286913 302.054849,378.293054 L302.054849,378.293054 Z" id="路径" fill="#00FFAE"></path>
            <path d="M302.32482,378.766186 C344.397988,354.759526 376.597459,316.290072 393.096146,270.31958 C395.412042,263.878389 397.45317,257.158874 398.984016,250.717682 C399.505733,248.76758 399.834458,246.769703 399.965328,244.753616 C400.196912,240.600336 399.264816,236.465334 397.276534,232.825483 C392.17873,223.437879 381.320498,218.906063 371.173644,221.931122 C324.070686,236.026199 271.374251,359.32333 204.17403,388.467734 C186.235653,396.20114 163.449597,399.302455 144,395.465572 C187.373974,417.333815 261.914406,401.906764 302.285567,378.766186 L302.32482,378.766186 Z" id="路径" fill="#1D79E1"></path>
            <path d="M2.02600855,199.002038 C2.78457125,147.356297 27.9768378,91.2014864 53.0493313,65.458071 C57.6102154,60.3709849 62.8647438,55.9447114 68.6597533,52.3082709 C87.9480998,39.559021 112.767465,38.5633141 133.024648,49.7260707 C153.281831,60.8888273 165.602886,82.3508291 164.977254,105.384201 C164.418313,126.00277 150.883958,149.978312 138.227938,164.975441 C90.8776555,221.150115 1.84634896,250.508733 63.30989,348 C23.2775653,308.754651 1.13283803,254.914732 2.02600855,199.002038 L2.02600855,199.002038 Z" id="路径" fill="#00FFAE"></path>
            <path d="M0.0278000391,198.017942 C-0.772428678,246.039491 15.7264439,292.759401 46.5378103,329.720486 C50.8515549,334.892563 55.5378502,339.967053 60.2633614,344.573129 C61.6260425,345.971434 63.1234364,347.233104 64.7339694,348.339963 C68.1725086,350.622346 72.1905664,351.887833 76.3222561,351.989692 C86.8705505,352.306845 96.219335,345.274895 98.792944,335.087736 C110.557702,287.738836 32.2240213,181.291641 41.3417088,109.175325 C43.7927001,89.8532267 52.6162686,68.7160223 65.7143659,54 C25.282814,80.3287985 0.733685523,151.898631 0.0278000391,198.017942 Z" id="路径" fill="#1D79E1"></path>
        </g>
    </g>
</svg>